<?xml version="1.0" encoding="UTF-8"?>
<svg xmlns="http://www.w3.org/2000/svg" xmlns:xlink="http://www.w3.org/1999/xlink" width="50px" height="50px" viewBox="0 0 50 50" version="1.1">
<defs>
<filter id="alpha" filterUnits="objectBoundingBox" x="0%" y="0%" width="100%" height="100%">
  <feColorMatrix type="matrix" in="SourceGraphic" values="0 0 0 0 1 0 0 0 0 1 0 0 0 0 1 0 0 0 1 0"/>
</filter>
<mask id="mask0">
  <g filter="url(#alpha)">
<rect x="0" y="0" width="50" height="50" style="fill:rgb(0%,0%,0%);fill-opacity:0.929412;stroke:none;"/>
  </g>
</mask>
<clipPath id="clip1">
  <rect x="0" y="0" width="50" height="50"/>
</clipPath>
<g id="surface5" clip-path="url(#clip1)">
<path style=" stroke:none;fill-rule:evenodd;fill:rgb(99.215686%,79.607843%,34.117647%);fill-opacity:1;" d="M -0.128906 7.421875 C -0.128906 6.726562 -0.128906 6.03125 -0.128906 5.339844 C 1.753906 2.585938 4.359375 1.238281 7.683594 1.300781 C 8.558594 2.066406 8.644531 2.890625 7.941406 3.777344 C 5.675781 4.390625 3.855469 5.648438 2.472656 7.550781 C 1.578125 8.050781 0.710938 8.007812 -0.128906 7.421875 Z M -0.128906 7.421875 " />
</g>
<mask id="mask1">
  <g filter="url(#alpha)">
<rect x="0" y="0" width="50" height="50" style="fill:rgb(0%,0%,0%);fill-opacity:0.92549;stroke:none;"/>
  </g>
</mask>
<clipPath id="clip2">
  <rect x="0" y="0" width="50" height="50"/>
</clipPath>
<g id="surface8" clip-path="url(#clip2)">
<path style=" stroke:none;fill-rule:evenodd;fill:rgb(99.215686%,79.607843%,34.509804%);fill-opacity:1;" d="M 49.871094 5.339844 C 49.871094 6.03125 49.871094 6.726562 49.871094 7.421875 C 49.027344 8.007812 48.160156 8.050781 47.265625 7.550781 C 45.886719 5.648438 44.0625 4.390625 41.796875 3.777344 C 41.09375 2.890625 41.179688 2.066406 42.058594 1.300781 C 45.378906 1.238281 47.984375 2.585938 49.871094 5.339844 Z M 49.871094 5.339844 "/>
</g>
<mask id="mask2">
  <g filter="url(#alpha)">
<rect x="0" y="0" width="50" height="50" style="fill:rgb(0%,0%,0%);fill-opacity:0.937255;stroke:none;"/>
  </g>
</mask>
<clipPath id="clip3">
  <rect x="0" y="0" width="50" height="50"/>
</clipPath>
<g id="surface11" clip-path="url(#clip3)">
<path style=" stroke:none;fill-rule:evenodd;fill:rgb(99.215686%,79.607843%,34.117647%);fill-opacity:1;" d="M 9.246094 5.339844 C 10.203125 5.296875 11.160156 5.339844 12.109375 5.46875 C 12.628906 6.28125 12.671875 7.105469 12.238281 7.941406 C 9.527344 8.539062 7.226562 9.839844 5.339844 11.847656 C 4.421875 12.984375 3.550781 14.15625 2.734375 15.363281 C 1.328125 15.785156 0.546875 15.261719 0.390625 13.800781 C 0.542969 12.785156 0.933594 11.875 1.5625 11.066406 C 3.652344 8.488281 6.210938 6.578125 9.246094 5.339844 Z M 9.246094 5.339844 "/>
</g>
<mask id="mask3">
  <g filter="url(#alpha)">
<rect x="0" y="0" width="50" height="50" style="fill:rgb(0%,0%,0%);fill-opacity:0.92549;stroke:none;"/>
  </g>
</mask>
<clipPath id="clip4">
  <rect x="0" y="0" width="50" height="50"/>
</clipPath>
<g id="surface14" clip-path="url(#clip4)">
<path style=" stroke:none;fill-rule:evenodd;fill:rgb(99.215686%,79.215686%,34.117647%);fill-opacity:1;" d="M 37.628906 5.339844 C 40.761719 5.253906 43.453125 6.296875 45.703125 8.464844 C 46.925781 9.644531 48.011719 10.945312 48.957031 12.371094 C 49.808594 14.453125 49.160156 15.453125 47.003906 15.363281 C 45.808594 13.386719 44.332031 11.648438 42.578125 10.15625 C 41.035156 9.207031 39.386719 8.515625 37.628906 8.074219 C 36.964844 7.164062 36.964844 6.253906 37.628906 5.339844 Z M 37.628906 5.339844 " fill="currentColor"/>
</g>
<mask id="mask4">
  <g filter="url(#alpha)">
<rect x="0" y="0" width="50" height="50" style="fill:rgb(0%,0%,0%);fill-opacity:0.988235;stroke:none;"/>
  </g>
</mask>
<clipPath id="clip5">
  <rect x="0" y="0" width="50" height="50"/>
</clipPath>
<g id="surface17" clip-path="url(#clip5)">
<path style=" stroke:none;fill-rule:evenodd;fill:rgb(86.666667%,17.647059%,26.27451%);fill-opacity:1;" d="M 13.671875 9.246094 C 18.164062 8.996094 21.855469 10.558594 24.738281 13.933594 C 26.378906 12.46875 28.15625 11.207031 30.078125 10.15625 C 37.828125 7.976562 43.339844 10.539062 46.613281 17.839844 C 47.519531 22.175781 47 26.339844 45.050781 30.339844 C 40.535156 39.066406 33.808594 45.402344 24.871094 49.347656 C 16.671875 45.796875 10.289062 40.152344 5.730469 32.421875 C 3.894531 29.097656 2.808594 25.539062 2.472656 21.746094 C 3.109375 14.773438 6.84375 10.605469 13.671875 9.246094 Z M 13.671875 9.246094 " />
</g>
</defs>
<g id="surface1">
<use xlink:href="#surface5" mask="url(#mask0)"/>
<use xlink:href="#surface8" mask="url(#mask1)"/>
<use xlink:href="#surface11" mask="url(#mask2)"/>
<use xlink:href="#surface14" mask="url(#mask3)"/>
<use xlink:href="#surface17" mask="url(#mask4)"/>
</g>
</svg>
