<!-- icon666.com - MILLIONS vector ICONS FREE --><svg version="1.1" id="Capa_1" xmlns="http://www.w3.org/2000/svg" fill="currentColor" xmlns:xlink="http://www.w3.org/1999/xlink" x="0px" y="0px" viewBox="0 0 512 512" style="enable-background:new 0 0 512 512;" xml:space="preserve"><g><g><path d="M213.333,213.333v32c0,29.455-23.878,53.333-53.333,53.333s-53.333-23.878-53.333-53.333v-32H85.333v32 C85.38,286.551,118.782,319.953,160,320c41.218-0.047,74.62-33.449,74.667-74.667v-32H213.333z"></path></g></g><g><g><path d="M160,85.333c-47.128,0-85.333,38.205-85.333,85.333v42.667c0,5.891,4.776,10.667,10.667,10.667H96 c22.556,1.409,43.925-10.223,54.987-29.931C162.133,209.344,183.467,224,224,224h10.667c5.891,0,10.667-4.776,10.667-10.667 v-42.667C245.333,123.538,207.128,85.333,160,85.333z M224,202.667c-61.461,0-63.915-38.4-64-42.667 c0-5.891-4.776-10.667-10.667-10.667c-5.891,0-10.667,4.776-10.667,10.667c0,1.739-0.491,42.667-42.667,42.667v-32 c0-35.346,28.654-64,64-64c35.346,0,64,28.654,64,64V202.667z"></path></g></g><g><g><rect x="181.333" y="298.667" width="21.333" height="32"></rect></g></g><g><g><rect x="117.333" y="298.667" width="21.333" height="32"></rect></g></g><g><g><path d="M224,320h-32c-4.712,0-8.866,3.091-10.219,7.605L160,400.213l-21.781-72.608C136.866,323.091,132.712,320,128,320H96 c-52.995,0.059-95.941,43.005-96,96v85.333C0,507.224,4.776,512,10.667,512h298.667c5.891,0,10.667-4.776,10.667-10.667V416 C319.941,363.005,276.995,320.059,224,320z M298.667,490.667H21.333V416C21.38,374.782,54.782,341.38,96,341.333h24.064 l29.717,99.061c1.03,3.439,3.72,6.13,7.16,7.16c5.644,1.689,11.588-1.516,13.278-7.16l29.717-99.061H224 c41.218,0.047,74.62,33.449,74.667,74.667V490.667z"></path></g></g><g><g><rect x="245.333" y="448" width="21.333" height="53.333"></rect></g></g><g><g><rect x="53.333" y="448" width="21.333" height="53.333"></rect></g></g><g><g><path d="M213.333,330.667v48.341l-60.171,50.133l13.675,16.384l64-53.333c2.428-2.028,3.831-5.029,3.829-8.192v-53.333H213.333z"></path></g></g><g><g><path d="M106.667,379.008v-48.341H85.333V384c-0.001,3.163,1.401,6.164,3.829,8.192l64,53.333l13.675-16.384L106.667,379.008z"></path></g></g><g><g><rect x="149.333" y="437.333" width="21.333" height="64"></rect></g></g><g><g><rect x="96" y="234.667" width="128" height="21.333"></rect></g></g><g><g><path d="M458.667,245.333c-29.455,0-53.333,23.878-53.333,53.333c0,29.455,23.878,53.333,53.333,53.333 c29.441-0.035,53.298-23.893,53.333-53.333C512,269.211,488.122,245.333,458.667,245.333z M458.667,330.667 c-17.673,0-32-14.327-32-32c0-17.673,14.327-32,32-32s32,14.327,32,32C490.667,316.34,476.34,330.667,458.667,330.667z"></path></g></g><g><g><path d="M448,341.333v112c0,20.619-16.715,37.333-37.333,37.333s-37.333-16.715-37.333-37.333V192H352v261.333 c0.035,32.386,26.281,58.631,58.667,58.667c32.386-0.035,58.631-26.281,58.667-58.667v-112H448z"></path></g></g><g><g><path d="M298.667,0c-17.673,0-32,14.327-32,32s14.327,32,32,32c17.673,0,32-14.327,32-32S316.34,0,298.667,0z M298.667,42.667 C292.776,42.667,288,37.891,288,32s4.776-10.667,10.667-10.667c5.891,0,10.667,4.776,10.667,10.667S304.558,42.667,298.667,42.667 z"></path></g></g><g><g><path d="M426.667,0c-17.673,0-32,14.327-32,32s14.327,32,32,32s32-14.327,32-32S444.34,0,426.667,0z M426.667,42.667 C420.776,42.667,416,37.891,416,32s4.776-10.667,10.667-10.667S437.333,26.109,437.333,32S432.558,42.667,426.667,42.667z"></path></g></g><g><g><path d="M447.413,34.731l-14.251,15.872c9.299,8,14.705,19.616,14.837,31.883c-0.129,12.27-5.535,23.89-14.837,31.893 l-70.496,63.285l-70.496-63.285c-9.302-8.003-14.708-19.623-14.837-31.893c0.133-12.266,5.538-23.882,14.837-31.883L277.92,34.731 c-2.397,2.061-4.635,4.299-6.695,6.695c-22.679,26.377-19.682,66.145,6.695,88.825l77.621,69.685 c1.954,1.763,4.494,2.736,7.125,2.731c2.632,0.006,5.171-0.968,7.125-2.731l77.621-69.685c2.397-2.061,4.635-4.299,6.695-6.695 C476.788,97.178,473.79,57.41,447.413,34.731z"></path></g></g><g><g><rect x="448" y="288" width="21.333" height="21.333"></rect></g></g></svg>