<!-- icon666.com - MILLIONS vector ICONS FREE --><svg viewBox="0 0 32 32" fill="currentColor" xmlns="http://www.w3.org/2000/svg" xmlns:xlink="http://www.w3.org/1999/xlink"><linearGradient id="New_Gradient_Swatch_2" gradientUnits="userSpaceOnUse" x1="3.79" x2="28.21" y1="29.21" y2="4.79"><stop offset="0" stop-color="#3a3985"></stop><stop offset=".42" stop-color="#385fb5"></stop><stop offset="1" stop-color="#3499ff"></stop></linearGradient><g id="_26-coin" data-name="26-coin"><path d="m22 2v4a1 1 0 0 1 -1 1h-10a1 1 0 0 1 -1-1v-4a1 1 0 0 1 1-1h10a1 1 0 0 1 1 1zm5 2v26a1 1 0 0 1 -1 1h-20a1 1 0 0 1 -1-1v-26a1 1 0 0 1 1-1h2v3a3 3 0 0 0 3 3h5a1 1 0 0 0 -1 1v1h-1a1 1 0 0 0 0 2h1v1a1 1 0 0 0 2 0v-1h1a1 1 0 0 0 0-2h-1v-1a1 1 0 0 0 -1-1h5a3 3 0 0 0 3-3v-3h2a1 1 0 0 1 1 1zm-13.29 19.29a1 1 0 0 0 -1.42 0l-1.29 1.3-.29-.3a1 1 0 0 0 -1.42 1.42l1 1a1 1 0 0 0 1.42 0l2-2a1 1 0 0 0 0-1.42zm0-6a1 1 0 0 0 -1.42 0l-1.29 1.3-.29-.3a1 1 0 0 0 -1.42 1.42l1 1a1 1 0 0 0 1.42 0l2-2a1 1 0 0 0 0-1.42zm9.29 7.71a1 1 0 0 0 -1-1h-5a1 1 0 0 0 0 2h5a1 1 0 0 0 1-1zm0-6a1 1 0 0 0 -1-1h-5a1 1 0 0 0 0 2h5a1 1 0 0 0 1-1z" fill="url(#New_Gradient_Swatch_2)"></path></g></svg>