<!-- icon666.com - MILLIONS vector ICONS FREE --><svg id="Layer_1" enable-background="new 0 0 512.528 512.528" fill="currentColor" viewBox="0 0 512.528 512.528" xmlns="http://www.w3.org/2000/svg"><g><path d="m391.271 134.01v-73.701h28.664v-30h-327.342v30h28.664v73.701h-121.257v348.209h512.528v-348.209zm-361.271 318.209v-288.209h91.257v288.209zm251.492 0h-50.005v-59.51h50.005zm30 0v-89.51h-110.005v89.51h-50.23v-391.91h210.015v391.91zm171.036 0h-91.257v-288.209h91.257z"></path><path d="m241.264 192.706h30v55.003h-30z"></path><path d="m181.26 192.706h30v55.003h-30z"></path><path d="m301.268 192.706h30v55.003h-30z"></path><path d="m241.264 277.71h30v55.004h-30z"></path><path d="m181.26 277.71h30v55.004h-30z"></path><path d="m61.253 192.706h30v30.002h-30z"></path><path d="m61.253 247.708h30v30.002h-30z"></path><path d="m61.253 302.712h30v30.002h-30z"></path><path d="m61.253 357.715h30v30.002h-30z"></path><path d="m301.268 277.71h30v55.004h-30z"></path><path d="m421.275 192.706h30v30.002h-30z"></path><path d="m421.275 247.708h30v30.002h-30z"></path><path d="m421.275 302.712h30v30.002h-30z"></path><path d="m421.275 357.715h30v30.002h-30z"></path><path d="m271.489 86.618h-30v23.696h-23.697v30h23.697v23.697h30v-23.697h23.698v-30h-23.698z"></path></g></svg>