<!-- icon666.com - MILLIONS vector ICONS FREE --><svg viewBox="0 0 32 32" fill="currentColor" xmlns="http://www.w3.org/2000/svg" xmlns:xlink="http://www.w3.org/1999/xlink"><linearGradient id="New_Gradient_Swatch_2" gradientUnits="userSpaceOnUse" x1="3.35" x2="21.66" y1="28.66" y2="10.34"><stop offset="0" stop-color="#3a3985"></stop><stop offset=".42" stop-color="#385fb5"></stop><stop offset="1" stop-color="#3499ff"></stop></linearGradient><g id="_16-presentation" data-name="16-presentation"><path d="m17 9v6h-16v-6a8 8 0 0 1 15.49-2.79 7.75 7.75 0 0 1 .51 2.79zm-16 14a8 8 0 0 0 15.48 2.81 7.73 7.73 0 0 0 .52-2.81v-6h-16zm18-7.32 4-4-4.1-4.1a9.5 9.5 0 0 1 .1 1.42zm9.66 1.66-4.24-4.24-5.42 5.42v4.48a9.85 9.85 0 0 1 -.65 3.52 9.55 9.55 0 0 1 -1.06 2.09l.05.05a8 8 0 0 0 11.32-11.32z" fill="url(#New_Gradient_Swatch_2)"></path></g></svg>