<!-- icon666.com - MILLIONS vector ICONS FREE --><svg enable-background="new 0 0 512 512" fill="currentColor" viewBox="0 0 512 512" xmlns="http://www.w3.org/2000/svg"><g id="_x32_1_Med_Records"><g><path d="m106.299 288.136h16.772c2.936 0 5.312-2.379 5.312-5.312 0-2.934-2.376-5.312-5.312-5.312h-16.772c-2.936 0-5.312 2.379-5.312 5.312 0 2.934 2.376 5.312 5.312 5.312z"></path><path d="m142.109 288.136h102.451c2.936 0 5.312-2.379 5.312-5.312 0-2.934-2.376-5.312-5.312-5.312h-102.451c-2.936 0-5.312 2.379-5.312 5.312 0 2.934 2.376 5.312 5.312 5.312z"></path><path d="m272.62 282.824c0 2.934 2.376 5.312 5.312 5.312h62.931c2.936 0 5.312-2.379 5.312-5.312 0-2.934-2.376-5.312-5.312-5.312h-62.931c-2.936 0-5.312 2.378-5.312 5.312z"></path><path d="m106.299 338.83h40.521c2.936 0 5.312-2.379 5.312-5.312s-2.376-5.312-5.312-5.312h-40.521c-2.936 0-5.312 2.379-5.312 5.312s2.376 5.312 5.312 5.312z"></path><path d="m277.932 328.205h-92.968c-2.936 0-5.312 2.379-5.312 5.312s2.376 5.312 5.312 5.312h92.968c2.936 0 5.312-2.379 5.312-5.312s-2.376-5.312-5.312-5.312z"></path><path d="m347.062 328.205h-35.758c-2.936 0-5.312 2.379-5.312 5.312s2.376 5.312 5.312 5.312h35.758c2.936 0 5.312-2.379 5.312-5.312s-2.376-5.312-5.312-5.312z"></path><path d="m106.299 391.948h16.772c2.936 0 5.312-2.379 5.312-5.312 0-2.934-2.376-5.312-5.312-5.312h-16.772c-2.936 0-5.312 2.379-5.312 5.312 0 2.934 2.376 5.312 5.312 5.312z"></path><path d="m142.109 381.324c-2.936 0-5.312 2.379-5.312 5.312 0 2.934 2.376 5.312 5.312 5.312h102.451c2.936 0 5.312-2.379 5.312-5.312 0-2.934-2.376-5.312-5.312-5.312z"></path><path d="m272.62 386.636c0 2.934 2.376 5.312 5.312 5.312h62.931c2.936 0 5.312-2.379 5.312-5.312 0-2.934-2.376-5.312-5.312-5.312h-62.931c-2.936 0-5.312 2.379-5.312 5.312z"></path><path d="m146.82 432.015h-40.521c-2.936 0-5.312 2.379-5.312 5.312 0 2.934 2.376 5.312 5.312 5.312h40.521c2.936 0 5.312-2.379 5.312-5.312 0-2.934-2.376-5.312-5.312-5.312z"></path><path d="m277.932 432.015h-92.968c-2.936 0-5.312 2.379-5.312 5.312 0 2.934 2.376 5.312 5.312 5.312h92.968c2.936 0 5.312-2.379 5.312-5.312 0-2.934-2.376-5.312-5.312-5.312z"></path><path d="m347.062 432.015h-35.758c-2.936 0-5.312 2.379-5.312 5.312 0 2.934 2.376 5.312 5.312 5.312h35.758c2.936 0 5.312-2.379 5.312-5.312 0-2.934-2.376-5.312-5.312-5.312z"></path><path d="m416.134 1.018h-261.676c-26.985 0-48.925 21.939-48.925 48.925v9.668h-9.668c-26.986 0-48.925 21.992-48.925 48.978v353.47c0 26.985 21.939 48.925 48.925 48.925h261.623c26.986 0 48.925-21.939 48.925-48.925v-9.668h9.721c26.933 0 48.925-21.939 48.925-48.925v-353.524c0-26.985-21.992-48.924-48.925-48.924zm-20.345 461.04c0 21.142-17.158 38.3-38.3 38.3h-261.623c-21.143 0-38.301-17.158-38.301-38.3v-353.47c0-21.142 17.158-38.353 38.301-38.353h261.623c21.142 0 38.3 17.211 38.3 38.353z"></path><path d="m226.65 101.789c-38.141 0-69.164 31.023-69.164 69.164s31.023 69.217 69.164 69.217 69.217-31.076 69.217-69.217-31.075-69.164-69.217-69.164zm29.961 74.529h-24.595v24.648c0 2.921-2.391 5.312-5.312 5.312-2.975 0-5.312-2.391-5.312-5.312v-24.648h-24.648c-2.975 0-5.312-2.39-5.312-5.312 0-2.975 2.337-5.312 5.312-5.312h24.648v-24.648c0-2.974 2.337-5.312 5.312-5.312 2.922 0 5.312 2.338 5.312 5.312v24.648h24.595c2.975 0 5.312 2.337 5.312 5.312 0 2.922-2.337 5.312-5.312 5.312z"></path></g></g></svg>