<!-- icon666.com - MILLIONS vector ICONS FREE --><svg viewBox="0 0 32 32" fill="currentColor" xmlns="http://www.w3.org/2000/svg"><g id="medical_records" fill-rule="evenodd" data-name="medical records"><path d="m19.975 8.449v1.326h1.326z"></path><path d="m18.775 10.375v-2.775h-8.925v16.8h12.3v-13.425h-2.775a.6.6 0 0 1 -.6-.6zm-7.275-.037h1.087v-1.088a.6.6 0 0 1 1.2 0v1.088h1.087a.6.6 0 1 1 0 1.2h-1.086v1.087a.6.6 0 0 1 -1.2 0v-1.087h-1.088a.6.6 0 1 1 0-1.2zm9 11.887h-9a.6.6 0 0 1 0-1.2h9a.6.6 0 1 1 0 1.2zm0-3.375h-9a.6.6 0 0 1 0-1.2h9a.6.6 0 1 1 0 1.2zm.6-3.975a.6.6 0 0 1 -.6.6h-9a.6.6 0 0 1 0-1.2h9a.6.6 0 0 1 .6.6z"></path><path d="m27.76 1.4h-23.52a2.842 2.842 0 0 0 -2.84 2.84v23.52a2.842 2.842 0 0 0 2.84 2.84h23.52a2.842 2.842 0 0 0 2.84-2.84v-23.52a2.842 2.842 0 0 0 -2.84-2.84zm-4.41 23.6a.6.6 0 0 1 -.6.6h-13.5a.6.6 0 0 1 -.6-.6v-18a.6.6 0 0 1 .6-.6h10.125a.6.6 0 0 1 .424.176l3.375 3.375a.6.6 0 0 1 .176.424z"></path></g></svg>