<!-- icon666.com - MILLIONS vector ICONS FREE --><svg id="Master_Line" fill="currentColor" enable-background="new 0 0 512 512" viewBox="0 0 512 512" xmlns="http://www.w3.org/2000/svg"><g><path d="m256 258.85c-52 0-94.15 42.15-94.15 94.15s42.15 94.15 94.15 94.15 94.15-42.15 94.15-94.15-42.15-94.15-94.15-94.15zm58.62 106.43c0 3.13-2.54 5.66-5.66 5.66h-35.01v35.01c0 3.13-2.53 5.66-5.66 5.66h-24.57c-3.13 0-5.66-2.54-5.66-5.66v-35.01h-35.01c-3.13 0-5.66-2.53-5.66-5.66v-24.57c0-3.13 2.54-5.66 5.66-5.66h35.01v-35.01c0-3.13 2.53-5.66 5.66-5.66h24.57c3.13 0 5.66 2.53 5.66 5.66v35.01h35.01c3.13 0 5.66 2.54 5.66 5.66z"></path><path d="m128.1 176.92h-58.2c-1.93 0-3.5 1.57-3.5 3.5s1.57 3.5 3.5 3.5h58.21c1.93 0 3.5-1.57 3.5-3.5s-1.57-3.5-3.51-3.5z"></path><path d="m472.58 193.9h-246.76c-2.26 0-4.44-.94-6-2.57l-44.45-46.76c-2.87-3.02-6.9-4.75-11.07-4.75h-57.15v-100.4c0-5.47 4.45-9.92 9.92-9.92h249.8v55.57c0 9.33 7.59 16.92 16.92 16.92h39.14c1.93 0 3.5-1.57 3.5-3.5s-1.57-3.5-3.5-3.5h-39.14c-5.47 0-9.92-4.45-9.92-9.92v-50.62l63.7 63.7c1.15 1.15 1.78 2.68 1.78 4.3v73.78c0 1.93 1.57 3.5 3.5 3.5s3.5-1.57 3.5-3.5v-73.78c0-3.49-1.36-6.78-3.83-9.25l-69.68-69.68c-.77-.77-1.84-1.12-2.89-1-.1-.01-.19-.03-.28-.03h-252.6c-9.33 0-16.92 7.59-16.92 16.92v100.4h-27.51v-75.35c0-5.47 4.45-9.92 9.92-9.92 1.93 0 3.5-1.57 3.5-3.5s-1.57-3.5-3.5-3.5c-9.33 0-16.92 7.59-16.92 16.92v75.35h-26.22c-9.33 0-16.92 7.59-16.92 16.92v315.85c0 9.33 7.59 16.92 16.92 16.92h433.17c9.33 0 16.92-7.59 16.92-16.92v-261.76c-.01-9.33-7.6-16.92-16.93-16.92zm9.92 278.68c0 5.47-4.45 9.92-9.92 9.92h-433.16c-5.47 0-9.92-4.45-9.92-9.92v-315.85c0-5.47 4.45-9.92 9.92-9.92h124.89c2.26 0 4.44.94 6 2.57l44.45 46.76c2.87 3.02 6.9 4.75 11.07 4.75h246.76c5.47 0 9.92 4.45 9.92 9.92v261.77z"></path><path d="m338.48 77.2c0-1.93-1.57-3.5-3.5-3.5h-162.26c-1.93 0-3.5 1.57-3.5 3.5s1.57 3.5 3.5 3.5h162.26c1.94 0 3.5-1.57 3.5-3.5z"></path><path d="m187.43 119.69c-1.93 0-3.5 1.57-3.5 3.5s1.57 3.5 3.5 3.5h132.84c1.93 0 3.5-1.57 3.5-3.5s-1.57-3.5-3.5-3.5z"></path><path d="m434.54 54.22c.64.5 1.39.73 2.14.73 1.04 0 2.08-.47 2.77-1.36l15.95-20.58c1.18-1.53.91-3.73-.62-4.91-1.53-1.19-3.73-.91-4.91.62l-15.95 20.58c-1.18 1.53-.91 3.73.62 4.92z"></path><path d="m496.02 120.02-26.04-.11c-1.98-.03-3.51 1.55-3.52 3.49-.01 1.93 1.55 3.51 3.48 3.51l26.04.11h.02c1.93 0 3.49-1.56 3.5-3.49s-1.55-3.5-3.48-3.51z"></path><path d="m20.52 24.1 22.4 13.28c.56.33 1.17.49 1.78.49 1.2 0 2.36-.61 3.01-1.72.99-1.66.44-3.81-1.23-4.8l-22.4-13.28c-1.66-.99-3.81-.44-4.8 1.23-.97 1.67-.43 3.81 1.24 4.8z"></path><path d="m43.43 112.22c-.72-1.79-2.76-2.67-4.55-1.95l-24.18 9.67c-1.79.72-2.67 2.75-1.95 4.55.55 1.37 1.86 2.2 3.25 2.2.43 0 .87-.08 1.3-.25l24.18-9.67c1.79-.72 2.67-2.76 1.95-4.55z"></path></g></svg>