<!-- icon666.com - MILLIONS vector ICONS FREE --><svg id="Capa_1" fill="currentColor" enable-background="new 0 0 512 512" viewBox="0 0 512 512" xmlns="http://www.w3.org/2000/svg"><g><path d="m467 241h-113.752c3.526-18.907-4.892-37.555-20.697-47.676 10.328-24.664-3.163-52.831-28.682-60.446-3.467-22.277-15.617-41.714-32.869-54.741v-3.137c0-41.355-33.645-75-75-75s-75 33.645-75 75v1.692c-18.397 13.075-31.4 33.262-34.923 56.532-24.679 8.067-37.557 35.427-27.785 59.592-13.359 8.178-22.292 22.906-22.292 39.684 0 25.641 20.86 46.5 46.5 46.5 7.36 0 14.553-1.786 21.001-5.053 4.995 7.477 10.875 14.314 17.499 20.351v36.702h-61.529c-32.793 0-59.471 26.679-59.471 59.471v106.529c0 8.284 6.716 15 15 15h452c24.813 0 45-20.187 45-45v-181c0-24.813-20.187-45-45-45zm-165.602 0c1.899-7.241 3.072-14.684 3.471-22.179 2.09-.677 4.109-1.51 6.053-2.472 7.486 1.562 13.127 8.209 13.127 16.151 0 3.023-.844 5.955-2.375 8.5zm-57.818 241h-26.955l24.375-61.97v46.97c0 5.259.915 10.305 2.58 15zm29.227-351h-6.807c-25.129 0-46.376-16.939-52.921-40h6.807c25.129 0 46.376 16.939 52.921 40zm-76.807-101c20.765 0 38.282 14.142 43.447 33.298-6.285-1.487-12.829-2.298-19.562-2.298-14.851 0-31.497 0-49.771 0-5.97 0-11.795.626-17.421 1.802 5.333-18.903 22.722-32.802 43.307-32.802zm-25.885 61h8.807c-6.545 23.061-27.792 40-52.921 40h-8.807c6.544-23.061 27.791-40 52.921-40zm-70 70h25.885c29.007 0 54.655-14.615 70-36.857 15.345 22.242 40.993 36.857 70 36.857 1.215 0 25.45-.001 23.91-.001 10.305.011 16.115 7.278 16.115 15.001 0 7.783-5.928 15-16 15-8.284 0-15 6.716-15 15-.328 4.317 1.72 19.538-6.443 38.51-13.795 5.813-24.095 18.315-26.843 33.418-13.545 9.746-29.917 15.072-46.714 15.072-44.112 0-80-35.888-80-80v-7c0-8.284-6.716-15-15-15-8.271 0-15-6.729-15-15s6.729-15 15.09-15zm-34.115 71.5c0-8.205 6.027-15.012 13.883-16.272 1.701.855 3.461 1.612 5.276 2.25.488 9.897 2.292 19.453 5.237 28.499-10.966 5.993-24.396-1.983-24.396-14.477zm175 80.419v25.632c-1.165 2.037 2.056-5.501-46 116.47l-44-111.864v-29.354c28.652 12.562 61.43 12.248 90-.884zm-211 77.552c0-16.25 13.221-29.471 29.471-29.471h66.311l47.593 121h-143.375zm452 76.529c0 8.271-6.729 15-15 15h-181c-8.271 0-15-6.729-15-15v-121-60c0-8.271 6.729-15 15-15h181c8.271 0 15 6.729 15 15z"></path><circle cx="451" cy="405" r="15"></circle><circle cx="391" cy="451" r="15"></circle><path d="m417.977 369.394h10.124c8.284 0 15-6.716 15-15s-6.716-15-15-15h-10.124c-.524-1.488-1.134-2.952-1.818-4.388l7.159-7.159c5.857-5.858 5.857-15.355 0-21.213-5.858-5.857-15.355-5.857-21.213 0l-7.159 7.159c-1.437-.684-2.901-1.295-4.389-1.818v-10.125c0-8.284-6.716-15-15-15s-15 6.716-15 15v10.123c-6.146 2.162-11.914 5.694-16.82 10.6l-5.334-5.334c-5.858-5.858-15.355-5.858-21.213 0-5.858 5.857-5.858 15.354 0 21.213l5.335 5.335c-4.829 4.829-8.421 10.564-10.627 16.819h-10.098c-8.284 0-15 6.716-15 15s6.716 15 15 15h10.097c.529 1.501 1.138 2.972 1.826 4.408l-7.14 7.14c-5.857 5.858-5.857 15.355 0 21.213 5.86 5.859 15.355 5.858 21.213 0l7.14-7.14c1.436.687 2.906 1.296 4.407 1.826v10.098c0 8.284 6.716 15 15 15s15-6.716 15-15v-10.097c6.256-2.205 11.99-5.798 16.819-10.627l5.334 5.335c5.856 5.857 15.354 5.859 21.213 0 5.858-5.857 5.858-15.354 0-21.213l-5.334-5.334c4.908-4.908 8.439-10.676 10.602-16.821zm-53.027 16.819c-5.863 5.862-15.35 5.863-21.213 0 0 0 0 0-.001-.001-5.861-5.86-5.863-15.349.001-21.212l21.212-21.213c5.849-5.849 15.364-5.849 21.214 0 5.862 5.862 5.862 15.35 0 21.213-7.233 7.233-13.223 13.223-21.213 21.213z"></path><path d="m116 411h-5v-5c0-8.284-6.716-15-15-15s-15 6.716-15 15v5h-5c-8.284 0-15 6.716-15 15s6.716 15 15 15h5v5c0 8.284 6.716 15 15 15s15-6.716 15-15v-5h5c8.284 0 15-6.716 15-15s-6.716-15-15-15z"></path><path d="m233.984 240.502c4.143-7.174 1.686-16.349-5.488-20.491-7.173-4.143-16.348-1.686-20.491 5.487-5.761 9.977-20.192 9.991-25.961.001-4.144-7.174-13.316-9.632-20.491-5.488-7.174 4.143-9.631 13.316-5.489 20.49 17.284 29.93 60.62 29.958 77.92.001z"></path></g></svg>