<!-- icon666.com - MILLIONS vector ICONS FREE --><svg viewBox="0 0 32 32" fill="currentColor" xmlns="http://www.w3.org/2000/svg" xmlns:xlink="http://www.w3.org/1999/xlink"><linearGradient id="New_Gradient_Swatch_2" gradientUnits="userSpaceOnUse" x1="2.88" x2="30.29" y1="32.29" y2="4.88"><stop offset="0" stop-color="#3a3985"></stop><stop offset=".42" stop-color="#385fb5"></stop><stop offset="1" stop-color="#3499ff"></stop></linearGradient><g id="_87-reporting" data-name="87-reporting"><path d="m17.49 13h-15a9.08 9.08 0 0 1 4.13-3.34 5 5 0 1 1 6.76 0 9.08 9.08 0 0 1 4.11 3.34zm8.51-2v4h4a1 1 0 0 1 1 1v14a1 1 0 0 1 -1 1h-28a1 1 0 0 1 -1-1v-14a1 1 0 0 1 1-1h22v-4h-4a1 1 0 0 1 -1-1v-4a1 1 0 0 1 1-1h10a1 1 0 0 1 1 1v4a1 1 0 0 1 -1 1zm-6 12a1 1 0 0 0 -1-1h-2v-2a1 1 0 0 0 -2 0v2h-2a1 1 0 0 0 0 2h2v2a1 1 0 0 0 2 0v-2h2a1 1 0 0 0 1-1z" fill="url(#New_Gradient_Swatch_2)"></path></g></svg>