<!-- icon666.com - MILLIONS vector ICONS FREE --><svg id="Line" fill="currentColor" viewBox="0 0 64 64" xmlns="http://www.w3.org/2000/svg"><path d="m62 55h-18.382l2-4h9.382a3 3 0 0 0 3-3v-20a3 3 0 0 0 -3-3h-26a3 3 0 0 0 -3 3v20a3 3 0 0 0 3 3h9.382l2 4h-18.382a1 1 0 0 0 0 2h40a1 1 0 0 0 0-2zm-19-11a1 1 0 0 1 -2 0v-5h-5a1 1 0 0 1 0-2h5v-5a1 1 0 0 1 2 0v5h5a1 1 0 0 1 0 2h-5z" fill="#c4a2fc"></path><g fill="#151a6a"><path d="m2 44.974 48.147.026a1 1 0 0 0 0-2l-15-.008v-17.992h2.184a3 3 0 0 0 2.816 2h8a3 3 0 0 0 3-3v-8a3 3 0 0 0 -3-3h-8a3 3 0 0 0 -2.816 2h-2.183v-5a3 3 0 0 0 -3-3h-26a3 3 0 0 0 -3 3v32.975h-1.148a1 1 0 0 0 0 2zm21.148-8.974a1 1 0 0 1 1 1v5.986h-4v-6.986zm-5 6.983h-4v-5.983a1 1 0 0 1 1-1h3zm22-27.983h8a1 1 0 0 1 1 1v8a1 1 0 0 1 -1 1h-8a1 1 0 0 1 -1-1v-8a1 1 0 0 1 1-1zm-3 2v6h-2v-6zm-32-7a1 1 0 0 1 1-1h26a1 1 0 0 1 1 1v32.991h-7v-5.991a3 3 0 0 0 -3-3h-8a3 3 0 0 0 -3 3v5.98h-7z"></path><path d="m16.53 31a1 1 0 0 0 1-1v-6a1 1 0 0 0 -2 0v6a1 1 0 0 0 1 1z"></path><path d="m21.766 31a1 1 0 0 0 1-1v-6a1 1 0 0 0 -2 0v6a1 1 0 0 0 1 1z"></path><path d="m27 31a1 1 0 0 0 1-1v-6a1 1 0 0 0 -2 0v6a1 1 0 0 0 1 1z"></path><path d="m11.294 31a1 1 0 0 1 -1-1v-6a1 1 0 0 1 2 0v6a1 1 0 0 1 -1 1z"></path><path d="m16.53 21a1 1 0 0 0 1-1v-6a1 1 0 0 0 -2 0v6a1 1 0 0 0 1 1z"></path><path d="m21.766 21a1 1 0 0 0 1-1v-6a1 1 0 0 0 -2 0v6a1 1 0 0 0 1 1z"></path><path d="m27 21a1 1 0 0 0 1-1v-6a1 1 0 1 0 -2 0v6a1 1 0 0 0 1 1z"></path><path d="m11.294 21a1 1 0 0 1 -1-1v-6a1 1 0 0 1 2 0v6a1 1 0 0 1 -1 1z"></path><path d="m42.148 21h1v1a1 1 0 0 0 2 0v-1h1a1 1 0 0 0 0-2h-1v-1a1 1 0 0 0 -2 0v1h-1a1 1 0 0 0 0 2z"></path></g></svg>