<!-- icon666.com - MILLIONS vector ICONS FREE --><svg viewBox="0 0 60 60" fill="currentColor" xmlns="http://www.w3.org/2000/svg"><g id="029---Medical"><path id="Shape" d="m37.93 39.94c-.0383885-.5291332-.2854373-1.0213345-.6867813-1.3682908-.401344-.3469562-.9240956-.5202366-1.4532187-.4817092-1.6239564.3069343-3.3035902.0825156-4.79-.64v-5.78c1.5765131-.2472333 3.0967062-.7720216 4.49-1.55 7.11-4.32 3.98-15.12-4.49-15.12v-3c0-.5522847-.4477153-1-1-1s-1 .4477153-1 1v3.23c-2.9001708.6148975-5.5117576 2.1811456-7.42 4.45-.4150007.5082797-.5542752 1.1877979-.372691 1.8183541.1815842.6305561.6609253 1.1319287 1.282691 1.3416459.531751.1717351 1.1095833.1286669 1.61-.12 1.5254025-.7892719 3.1895166-1.2749215 4.9-1.43v3.31c-2.48.77-4.72 1.77-6.19 4.18-2.81 4.68-.19 11.29 6.19 13.47v5.75c0 .5522847.4477153 1 1 1s1-.4477153 1-1v-5.29c1.8802728.2456624 3.7921217.0010835 5.55-.71.8815064-.2842848 1.4524935-1.1366279 1.38-2.06zm-9.6-7.25c.1942568-.1944909.4209989-.3535488.67-.47v3.6c-.64-.82-1.44-2.39-.67-3.13zm3.54-9.69c0 .42-.29.68-.87.92v-2.35c.5037788.3083357.8277651.8408649.87 1.43zm2.63 17.55c-5.37 1.29-10.37-2.55-10.79-7.13-.2319573-2.5852204 1.2247216-5.026469 3.61-6.05 2.91-1.41 6.44-1.29 6.55-4.29-.0385584-1.6463609-1.1070845-3.0910722-2.67-3.61-2.35-.69-5.83.38-8.08 1.49 2.0421131-2.4694689 5.0658335-3.9173447 8.27-3.96 2.6349577.0418682 4.9418872 1.7791355 5.71 4.3.9517153 2.6936739-.1596178 5.6824863-2.64 7.1-2.82 1.68-5.56.95-7.51 2.83-2.71 2.6.82 8.33 6 8.89 2.31.32 4.55-.54 1.55.43z"></path><path id="Shape" d="m26 6h1c.5522847 0 1-.44771525 1-1s-.4477153-1-1-1h-1c-.5522847 0-1 .44771525-1 1s.4477153 1 1 1z"></path><path id="Shape" d="m31 6h3c.5522847 0 1-.44771525 1-1s-.4477153-1-1-1h-3c-.5522847 0-1 .44771525-1 1s.4477153 1 1 1z"></path><path id="Shape" d="m27 54h-1c-.5522847 0-1 .4477153-1 1s.4477153 1 1 1h1c.5522847 0 1-.4477153 1-1s-.4477153-1-1-1z"></path><path id="Shape" d="m34 54h-3c-.5522847 0-1 .4477153-1 1s.4477153 1 1 1h3c.5522847 0 1-.4477153 1-1s-.4477153-1-1-1z"></path><path id="Shape" d="m7.35 19.23c-.47569743-.2646773-1.07572062-.1002265-1.35.37l-.5.86c-.19827449.3090101-.21126976.7018236-.03385214 1.0232625.17741761.321439.51671373.5198059.88385214.5167375.35868476.001424.69065903-.1893658.87-.5l.5-.86c.14665438-.2338949.19009121-.5180119.12001983-.7850407-.07007137-.2670287-.24741627-.4932101-.49001983-.6249593z"></path><path id="Shape" d="m10.85 13.17c-.2305237-.133545-.5048063-.1695837-.7620037-.1001217-.25719732.0694621-.47604508.238682-.6079963.4701217l-1.48 2.59c-.1789919.3100165-.17861446.6920638.00098964 1.001726.17960411.3096623.51103506.4996985.86901036.498274.35868476.001424.69065903-.1893658.87-.5l1.5-2.59c.1319392-.232962.1649527-.5091017.0916499-.7666011-.0733027-.2574994-.2467993-.4748515-.4816499-.6033989z"></path><path id="Shape" d="m49.15 46.83c.2305237.133545.5048063.1695837.7620037.1001217.2571973-.0694621.4760451-.238682.6079963-.4701217l.5-.86c.1786328-.3108211.1778753-.693331-.0019873-1.0034421-.1798625-.3101111-.5115046-.50071-.87-.5-.3584953.00071-.6893799.192621-.8680127.5034421l-.5.86c-.133545.2305237-.1695837.5048063-.1001217.7620037.0694621.2571973.238682.4760451.4701217.6079963z"></path><path id="Shape" d="m51.65 42.5c.4756974.2646773 1.0757206.1002265 1.35-.37l1.5-2.59c.1786328-.3108211.1778753-.693331-.0019873-1.0034421-.1798625-.3101111-.5115046-.50071-.87-.5-.3584953.00071-.6893799.192621-.8680127.5034421l-1.5 2.59c-.1319392.232962-.1649527.5091017-.0916499.7666011.0733027.2574994.2467993.4748515.4816499.6033989z"></path><path id="Shape" d="m10.72 44.6c-.1572029-.3478371-.4987108-.5758412-.88023824-.5876816-.38152748-.0118403-.73651638.1945486-.9149856.5319684-.17846921.3374198-.14928446.7470071.07522384 1.0557132l.5.86c.27614237.4804877.8895123.6461424 1.37.37s.6461424-.8895123.37-1.37z"></path><path id="Shape" d="m7.22 38.54c-.27614239-.4804877-.88951226-.6461423-1.36999998-.37-.48048771.2761424-.64614236.8895123-.37000002 1.37l1.52 2.59c.27614237.4804877.88951227.6461424 1.37.37s.64614237-.8895123.37-1.37z"></path><path id="Shape" d="m52.78 21.46c.2761424.4804877.8895123.6461424 1.37.37s.6461424-.8895123.37-1.37l-.52-.86c-.2761424-.4804877-.8895123-.6461424-1.37-.37s-.6461424.8895123-.37 1.37z"></path><path id="Shape" d="m50.28 17.13c.2761424.4804877.8895123.6461424 1.37.37s.6461424-.8895123.37-1.37l-1.5-2.59c-.1786328-.3108211-.5095174-.5027321-.8680127-.5034421s-.6901375.1898889-.87.5-.1806201.692621-.0019873 1.0034421z"></path><path id="Shape" d="m3 58h-2c-.55228475 0-1 .4477153-1 1s.44771525 1 1 1h2c.55228475 0 1-.4477153 1-1s-.44771525-1-1-1z"></path><path id="Shape" d="m59 58h-20.18c.26-.74.18-.19.18-10.68-.0014245-.3579753.1886117-.6894063.498274-.8690104.3096622-.1796041.6917095-.1799815 1.001726-.0009896l8.38 4.84c.6900254.40548 1.5134657.5184307 2.2871888.3137321.7737232-.2046986 1.4335771-.7100743 1.8328112-1.4037321l6-10.4c.8226148-1.4335764.330739-3.2624601-1.1-4.09l-8.4-4.84c-.3133105-.1775612-.5069483-.509873-.5069483-.87s.1936378-.6924388.5069483-.87l8.38-4.84c1.4380134-.8206769 1.9392785-2.6511894 1.12-4.09l-6-10.4c-.831246-1.43310373-2.6668085-1.92109474-4.1-1.09l-8.4 4.84c-.3100165.1789919-.6920638.1786145-1.001726-.0009896-.3096623-.1796041-.4996985-.5110351-.498274-.8690104v-9.68c0-1.65685425-1.3431458-3-3-3h-12c-1.6568542 0-3 1.34314575-3 3v9.68c.0014245.3579753-.1886117.6894063-.498274.8690104-.3096622.1796041-.6917095.1799815-1.001726.0009896l-8.38-4.84c-.6900254-.40547998-1.51346568-.51843072-2.28718884-.31373212-.77372315.2046986-1.4335771.71007428-1.83281116 1.40373212l-6 10.4c-.82261483 1.4335764-.330739 3.2624601 1.1 4.09l8.38 4.84c.3133105.1775612.5069483.509873.5069483.87s-.1936378.6924388-.5069483.87l-8.36 4.84c-1.43801344.8206769-1.93927846 2.6511894-1.12 4.09l6 10.4c.83124602 1.4331037 2.66680854 1.9210947 4.1 1.09l8.38-4.84c.3100165-.1789919.6920638-.1786145 1.001726.0009896.3096623.1796041.4996985.5110351.498274.8690104 0 10.46-.07 10 .18 10.68h-14.16c-.55228475 0-1 .4477153-1 1s.44771525 1 1 1h52c.5522847 0 1-.4477153 1-1s-.4477153-1-1-1zm-35 0c-.5522847 0-1-.4477153-1-1v-9.68c.0006877-1.0721404-.5708375-2.0631514-1.4991666-2.5995194-.9283291-.5363679-2.0723325-.5365511-3.0008334-.0004806l-8.38 4.84c-.22930865.1343739-.50267684.1719353-.75972984.1043886-.25705301-.0675468-.47664218-.2346444-.61027016-.4643886l-6-10.4c-.2713883-.4779792-.10613642-1.0853915.37-1.36l8.38-4.84c.9300833-.5353928 1.503337-1.526827 1.503337-2.6s-.5732537-2.0646072-1.503337-2.6l-8.38-4.84c-.47613642-.2746085-.6413883-.8820208-.37-1.36l6-10.4c.13362798-.2297442.35321715-.3968418.61027016-.4643886.257053-.0675467.53042119-.0299853.75972984.1043886l8.38 4.84c.9285009.5360705 2.0725043.5358873 3.0008334-.0004806.9283291-.536368 1.4998543-1.527379 1.4991666-2.5995194v-9.68c0-.55228475.4477153-1 1-1h12c.5522847 0 1 .44771525 1 1v9.68c-.0006877 1.0721404.5708375 2.0631514 1.4991666 2.5995194.9283291.5363679 2.0723325.5365511 3.0008334.0004806l8.38-4.84c.2293087-.1343739.5026768-.1719353.7597298-.1043886.257053.0675468.4766422.2346444.6102702.4643886 6.61 11.49 6 10.3 6 10.4.2713883.4779792.1061364 1.0853915-.37 1.36l-8.38 4.84c-.9300833.5353928-1.503337 1.526827-1.503337 2.6s.5732537 2.0646072 1.503337 2.6l8.38 4.84c.4761364.2746085.6413883.8820208.37 1.36l-6 10.4c-.133628.2297442-.3532172.3968418-.6102702.4643886-.257053.0675467-.5304211.0299853-.7597298-.1043886l-8.38-4.84c-.9285009-.5360705-2.0725043-.5358873-3.0008334.0004806-.9283291.536368-1.4998543 1.527379-1.4991666 2.5995194v9.68c0 .5522847-.4477153 1-1 1z"></path></g></svg>